/* XPM */
static const char *icon[] = {
/* columns rows colors chars-per-pixel */
"57 57 69 1 ",
"  c #06463F",
". c #064740",
"X c #084740",
"o c #0C4841",
"O c #114943",
"+ c #114B45",
"@ c #144A44",
"# c #164B45",
"$ c #134C47",
"% c #184C47",
"& c #174D48",
"* c #1B4D48",
"= c #1E4E4A",
"- c #1B514D",
"; c #204F4B",
": c #224F4B",
"> c #25514E",
", c #24524F",
"< c #28514D",
"1 c #2E524E",
"2 c #205753",
"3 c #275452",
"4 c #285250",
"5 c #2A5655",
"6 c #2B5A55",
"7 c #265D59",
"8 c #2C5A59",
"9 c #2F5B5A",
"0 c #355652",
"q c #3A5854",
"w c #335B5A",
"e c #2A635F",
"r c #3A625E",
"t c #2C6C68",
"y c #3A6864",
"u c #38716D",
"i c #2C7673",
"p c #435F5B",
"a c #40605B",
"s c #52625C",
"d c #5D6965",
"f c #5D6B67",
"g c #526B68",
"h c #4F716E",
"j c #6A7371",
"k c #2D807E",
"l c #2D8B89",
"z c #2E9595",
"x c #399899",
"c c #4E8B8A",
"v c #459C9C",
"b c #688684",
"n c #758180",
"m c #4E9FA0",
"M c #58A2A4",
"N c #61A6A8",
"B c #74AEB1",
"V c #8D9FA0",
"C c #86B8BB",
"Z c #9AB0B3",
"A c #9EB6BA",
"S c #8EBDC1",
"D c #99C3C7",
"F c #A9C1C6",
"G c #A2C9CE",
"H c #ADD0D6",
"J c #B6D2D9",
"K c #B9D8E0",
"L c #C6E6EE",
/* pixels */
"zzzzzzzzzzzzzzzzzzzzzzzzzzzzzzzzzzzzzzzzzzzzzzzzzzzzzzzzz",
"zzzzzzzzzzzzzzzzzzzzzzzzzzzzzzzzzzzzzzzzzzzzzzzzzzzzzzzzz",
"zzzzzzzzzzzzzzzzzzzzzzzzzzzzzzzzzzzzzzzzzzzzzzzzzzzzzzzzz",
"zzzzzzzzzzzzzzzzzzzzzzzzzzzzzzzzzzzzzzzzzzzzzzzzzzzzzzzzz",
"zzzzzzzzzzzzzzzzzzzzzzzzzzzzzzzzzzzzzzzzzzzzzzzzzzzzzzzzz",
"zzzzzzzzzzzzzzzzzzzzzzzzzzzzzzzzzzzzzzzzzzzzzzzzzzzzzzzzz",
"zzzzzzzzzzzzzzzzzzzzzzzzzzzzzzzzzzzzzzzzzzzzzzzzzzzzzzzzz",
"zzzzzzzzzzzzzzzzzzzzzzzzzzzzzzzzzzzzzzzzzzzzzzzzzzzzzzzzz",
"zzzzzzzzzzzzzzzzzzzzzzzzzzzzzzzzzzzzzzzzzzzzzzzzzzzzzzzzz",
"zzzzzzzzzzzzzzz             o#=0qfVLKDCBvzzzzzzzzzzzzzzzz",
"zzzzzzzzzzzzzzz          o%38888888wsFLLLDMzzzzzzzzzzzzzz",
"zzzzzzzzzzzzzzz        O=8888888888888nLLLLDxzzzzzzzzzzzz",
"zzzzzzzzzzzzzzz       =8888888888888889jLLLLKmzzzzzzzzzzz",
"zzzzzzzzzzzzzzz     O58888888883;%%%;38wVLLLLKmzzzzzzzzzz",
"zzzzzzzzzzzzzzz    =88888888,#o        :aLLLLLGzzzzzzzzzz",
"zzzzzzzzzzzzzzz   =8888888,O            %ALLLBxzzzzzzzzzz",
"zzzzzzzzzzzzzzz  ;888888wr222#           yKDvzzzzzzzzzzzz",
"zzzzzzzzzzzzzzz =8888885;zzzzzlO         3vzzzzzzzzzzzzzz",
"zzzzzzzzzzzzzzz%8888885oOzzzzzzt         2zzzzzzzzzzzzzzz",
"zzzzzzzzzzzzzzv5888888# Ozzzzzzz         2zzzzzzzzzzzzzzz",
"zzzzzzzzzzzzzzD888888%  +zzzzzzz         tzzzzzzzzzzzzzzz",
"zzzzzzzzzzzzzNL88888,   +zzzzzzi         zzzzzzzzzzzzzzzz",
"zzzzzzzzzzzzzGL88888    +zzzzzz&        -zzzzzzzzzzzzzzzz",
"zzzzzzzzzzzzMLL8888=    +zzzzl2         lzzzzzzzzzzzzzzzz",
"zzzzzzzzzzzzCLL8888o    X++++          ezzzzzzzzzzzzzzzzz",
"zzzzzzzzzzzzKLL888,                   ezzzzzzzzzzzzzzzzzz",
"zzzzzzzzzzzMLLL888#.                -lzzzzzzzzzzzzzzzzzzz",
"zzzzzzzzzzzBLLL888#           =888w8rjFLLLLLLmzzzzzzzzzzz",
"zzzzzzzzzzzSLLL888.           388888888sJLLLKzzzzzzzzzzzz",
"zzzzzzzzzzzDLLL884           o88888888889ZLLSzzzzzzzzzzzz",
"zzzzzzzzzzzLLLL88;           $88888888888wJLBzzzzzzzzzzzz",
"zzzzzzzzzzzLLLL88,      +zzzzvcr%@OOOO,888fLmzzzzzzzzzzzz",
"zzzzzzzzzzzLLLL88;      +zzzzzzzz+.  X58888Kzzzzzzzzzzzzz",
"zzzzzzzzzzzLLLL883      +zzzzzzzzi   o88888bzzzzzzzzzzzzz",
"zzzzzzzzzzzDLLL888      +zzzzzzzzz   $88888azzzzzzzzzzzzz",
"zzzzzzzzzzzSLLL888o     +zzzzzzzzz  o;888888zzzzzzzzzzzzz",
"zzzzzzzzzzzBLLL888=     +zzzzzzzzi   8888852zzzzzzzzzzzzz",
"zzzzzzzzzzzvLLL8885     +zzzzzzzz-  O88888;7zzzzzzzzzzzzz",
"zzzzzzzzzzzzDLL8888&    +zzzzzzz2   %88888%izzzzzzzzzzzzz",
"zzzzzzzzzzzzMLL88888#    22222&X    ;88888@zzzzzzzzzzzzzz",
"zzzzzzzzzzzzzSL888888*             O888885-zzzzzzzzzzzzzz",
"zzzzzzzzzzzzzxH88888883%o        O,888888;lzzzzzzzzzzzzzz",
"zzzzzzzzzzzzzzm5888888888,;%%%%,888888888hzzzzzzzzzzzzzzz",
"zzzzzzzzzzzzzzz ,88888888888888888888888gxzzzzzzzzzzzzzzz",
"zzzzzzzzzzzzzzz  %58888888888888888888,uzzzzzzzzzzzzzzzzz",
"zzzzzzzzzzzzzzz    %488888888888888,,wzzzzzzzzzzzzzzzzzzz",
"zzzzzzzzzzzzzzz      o%*,,8888,4,06izzzzzzzzzzzzzzzzzzzzz",
"zzzzzzzzzzzzzzzzzzzzzzzzzzzzzzzzzzzzzzzzzzzzzzzzzzzzzzzzz",
"zzzzzzzzzzzzzzzzzzzzzzzzzzzzzzzzzzzzzzzzzzzzzzzzzzzzzzzzz",
"zzzzzzzzzzzzzzzzzzzzzzzzzzzzzzzzzzzzzzzzzzzzzzzzzzzzzzzzz",
"zzzzzzzzzzzzzzzzzzzzzzzzzzzzzzzzzzzzzzzzzzzzzzzzzzzzzzzzz",
"zzzzzzzzzzzzzzzzzzzzzzzzzzzzzzzzzzzzzzzzzzzzzzzzzzzzzzzzz",
"zzzzzzzzzzzzzzzzzzzzzzzzzzzzzzzzzzzzzzzzzzzzzzzzzzzzzzzzz",
"zzzzzzzzzzzzzzzzzzzzzzzzzzzzzzzzzzzzzzzzzzzzzzzzzzzzzzzzz",
"zzzzzzzzzzzzzzzzzzzzzzzzzzzzzzzzzzzzzzzzzzzzzzzzzzzzzzzzz",
"zzzzzzzzzzzzzzzzzzzzzzzzzzzzzzzzzzzzzzzzzzzzzzzzzzzzzzzzz",
"zzzzzzzzzzzzzzzzzzzzzzzzzzzzzzzzzzzzzzzzzzzzzzzzzzzzzzzzz"
};
